HIERARCHY
ROOT Hips
{
	OFFSET 0.00000 0.00000 0.00000
	CHANNELS 6 Xposition Yposition Zposition Zrotation Yrotation Xrotation 
	JOINT LHipJoint
	{
		OFFSET 0 0 0
		CHANNELS 3 Zrotation Yrotation Xrotation
		JOINT LeftUpLeg
		{
			OFFSET 1.75344 -1.53157 0.77399
			CHANNELS 3 Zrotation Yrotation Xrotation
			JOINT LeftLeg
			{
				OFFSET 2.25415 -6.19323 0.00000
				CHANNELS 3 Zrotation Yrotation Xrotation
				JOINT LeftFoot
				{
					OFFSET 2.30342 -6.32861 0.00000
					CHANNELS 3 Zrotation Yrotation Xrotation
					JOINT LeftToeBase
					{
						OFFSET 0.10958 -0.30108 1.49206
						CHANNELS 3 Zrotation Yrotation Xrotation
						End Site
						{
							OFFSET 0.00000 -0.00000 0.77783
						}
					}
				}
			}
		}
	}
	JOINT RHipJoint
	{
		OFFSET 0 0 0
		CHANNELS 3 Zrotation Yrotation Xrotation
		JOINT RightUpLeg
		{
			OFFSET -1.81912 -1.53156 0.77399
			CHANNELS 3 Zrotation Yrotation Xrotation
			JOINT RightLeg
			{
				OFFSET -2.22882 -6.12365 0.00000
				CHANNELS 3 Zrotation Yrotation Xrotation
				JOINT RightFoot
				{
					OFFSET -2.21943 -6.09785 0.00000
					CHANNELS 3 Zrotation Yrotation Xrotation
					JOINT RightToeBase
					{
						OFFSET -0.18931 -0.52012 1.59379
						CHANNELS 3 Zrotation Yrotation Xrotation
						End Site
						{
							OFFSET -0.00000 -0.00000 0.84686
						}
					}
				}
			}
		}
	}
	JOINT LowerBack
	{
		OFFSET 0 0 0
		CHANNELS 3 Zrotation Yrotation Xrotation
		JOINT Spine
		{
			OFFSET -0.00200 1.66634 -0.14248
			CHANNELS 3 Zrotation Yrotation Xrotation
			JOINT Spine1
			{
				OFFSET -0.00875 1.64542 0.09514
				CHANNELS 3 Zrotation Yrotation Xrotation
				JOINT Neck
				{
					OFFSET 0 0 0
					CHANNELS 3 Zrotation Yrotation Xrotation
					JOINT Neck1
					{
						OFFSET 0.02257 1.59605 0.00839
						CHANNELS 3 Zrotation Yrotation Xrotation
						JOINT Head
						{
							OFFSET -0.10214 1.57530 -0.23335
							CHANNELS 3 Zrotation Yrotation Xrotation
							End Site
							{
								OFFSET -0.03588 1.60717 -0.08062
							}
						}
					}
				}
				JOINT LeftShoulder
				{
					OFFSET 0 0 0
					CHANNELS 3 Zrotation Yrotation Xrotation
					JOINT LeftArm
					{
						OFFSET 2.54983 1.10186 0.40078
						CHANNELS 3 Zrotation Yrotation Xrotation
						JOINT LeftForeArm
						{
							OFFSET 4.28840 -0.00000 0.00000
							CHANNELS 3 Zrotation Yrotation Xrotation
							JOINT LeftHand
							{
								OFFSET 3.06552 -0.00000 -0.00000
								CHANNELS 3 Zrotation Yrotation Xrotation
								JOINT LeftFingerBase
								{
									OFFSET 0 0 0
									CHANNELS 3 Zrotation Yrotation Xrotation
									JOINT LeftHandIndex1
									{
										OFFSET 0.75304 -0.00000 0.00000
										CHANNELS 3 Zrotation Yrotation Xrotation
										End Site
										{
											OFFSET 0.60712 -0.00000 0.00000
										}
									}
								}
								JOINT LThumb
								{
									OFFSET 0 0 0
									CHANNELS 3 Zrotation Yrotation Xrotation
									End Site
									{
										OFFSET 0.61639 -0.00000 0.61639
									}
								}
							}
						}
					}
				}
				JOINT RightShoulder
				{
					OFFSET 0 0 0
					CHANNELS 3 Zrotation Yrotation Xrotation
					JOINT RightArm
					{
						OFFSET -2.60909 1.35448 0.21802
						CHANNELS 3 Zrotation Yrotation Xrotation
						JOINT RightForeArm
						{
							OFFSET -4.52172 -0.00000 -0.00000
							CHANNELS 3 Zrotation Yrotation Xrotation
							JOINT RightHand
							{
								OFFSET -2.89140 -0.00000 0.00000
								CHANNELS 3 Zrotation Yrotation Xrotation
								JOINT RightFingerBase
								{
									OFFSET 0 0 0
									CHANNELS 3 Zrotation Yrotation Xrotation
									JOINT RightHandIndex1
									{
										OFFSET -0.68054 -0.00000 0.00000
										CHANNELS 3 Zrotation Yrotation Xrotation
										End Site
										{
											OFFSET -0.54867 -0.00000 0.00000
										}
									}
								}
								JOINT RThumb
								{
									OFFSET 0 0 0
									CHANNELS 3 Zrotation Yrotation Xrotation
									End Site
									{
										OFFSET -0.55705 -0.00000 0.55705
									}
								}
							}
						}
					}
				}
			}
		}
	}
}
MOTION
Frames: 11
Frame Time: .0083333
9.2668 15.2818 -35.5818 -2.8838 -0.3807 -356.3190 0.0000 0.0000 0.0000 -9.3702 -29.7831 -25.5866 2.4607 9.7661 28.2225 1.0529 13.1312 -28.1466 0.0341 -1.1920 -3.2771 0.0000 0.0000 0.0000 36.3685 6.7532 15.6361 0.0000 0.0000 -0.0000 1.7550 -28.2179 -28.9982 -0.9971 -6.3547 17.8172 2.0318 1.1143 7.7297 -0.0751 1.7413 -5.2444 -1.5020 0.7017 -9.8734 -7.1537 -4.3819 -5.5931 8.9831 -6.5314 14.7652 3.5637 -2.9748 5.8950 -0.0000 -0.0000 0.0000 -86.7380 13.0127 32.6384 19.4368 -29.9578 -5.2472 -0.0000 -0.0000 16.7066 12.9713 -34.1068 -7.3596 -7.1250 0.0000 -0.0000 -10.7833 -4.2736 11.7606 -0.0000 -0.0000 0.0000 87.5047 -9.7891 31.9134 -17.1359 27.0366 -4.1489 0.0000 0.0000 19.1980 2.5961 -52.4787 -2.0596 7.1250 -0.0000 -0.0000 72.6755 -70.2772 -51.7708
9.2784 15.2793 -35.5172 -2.9222 -0.4644 -356.2990 0.0000 0.0000 0.0000 -9.5125 -29.8089 -25.2058 2.4466 9.7402 28.1395 1.0893 13.0982 -28.3741 0.0130 -0.7368 -2.0249 0.0000 0.0000 0.0000 36.3401 6.6444 15.8646 0.0000 -0.0000 0.0000 1.6665 -27.9755 -29.1797 -1.0232 -6.4348 18.0513 2.0227 1.1065 7.4885 0.0255 1.7306 -5.1190 -1.3794 0.7065 -9.5952 -7.3972 -4.3185 -6.0184 9.1753 -6.4460 15.0934 3.6664 -2.9185 6.0781 0.0000 0.0000 0.0000 -86.9576 12.9964 32.1975 19.4834 -30.0149 -5.2705 -0.0000 -0.0000 16.1410 12.8016 -34.3045 -7.2976 -7.1250 0.0000 -0.0000 -10.8959 -4.4405 11.9174 0.0000 0.0000 0.0000 87.0371 -9.4407 32.2060 -16.9822 26.8343 -4.0793 0.0000 0.0000 19.5405 2.5893 -52.5191 -2.0552 7.1250 -0.0000 -0.0000 72.7780 -70.2924 -51.8844
9.2885 15.2709 -35.4577 -3.0165 -0.3474 -356.1650 0.0000 0.0000 0.0000 -9.5656 -29.6783 -25.1846 2.4578 9.7608 28.2055 1.0168 13.3147 -28.0590 0.0776 -1.7972 -4.9456 0.0000 0.0000 0.0000 36.3689 6.4519 15.8608 0.0000 -0.0000 0.0000 1.6826 -27.9728 -29.0480 -0.9575 -6.2309 17.4557 2.0343 1.0770 7.3699 0.1148 1.6990 -5.2263 -1.2844 0.6926 -9.6466 -7.5326 -4.2569 -6.0227 9.3403 -6.3945 15.4063 3.7485 -2.8859 6.1814 0.0000 -0.0000 0.0000 -87.0135 13.2997 32.1645 19.5322 -30.0746 -5.2949 -0.0000 -0.0000 15.5513 13.1006 -33.9556 -7.4060 -7.1250 0.0000 -0.0000 -10.6972 -4.1456 11.6412 0.0000 -0.0000 0.0000 86.6555 -9.5034 32.3979 -16.8724 26.6893 -4.0299 0.0000 0.0000 19.7224 2.3709 -52.6305 -1.8847 7.1250 -0.0000 -0.0000 72.9492 -70.4027 -52.1788
9.3042 15.2674 -35.3905 -3.0408 -0.2985 -356.2080 0.0000 0.0000 0.0000 -9.8279 -29.6395 -24.8474 2.4680 9.7795 28.2656 0.9119 13.8241 -27.7890 0.1909 -2.8136 -7.7603 0.0000 0.0000 0.0000 36.3221 6.1901 16.0893 0.0000 -0.0000 0.0000 1.7491 -28.0843 -28.7565 -0.8135 -5.7556 16.0769 2.1345 1.0800 7.1969 0.1062 1.7080 -5.1502 -1.3456 0.6935 -9.4568 -7.4815 -4.2702 -6.0153 9.4081 -6.4404 15.5394 3.7592 -2.8989 6.2264 0.0000 0.0000 0.0000 -86.9887 13.3379 32.2341 19.6012 -30.1588 -5.3295 -0.0000 -0.0000 15.0661 13.4963 -33.2779 -7.5023 -7.1250 0.0000 -0.0000 -10.4114 -3.5422 11.2169 0.0000 0.0000 0.0000 86.4089 -9.3654 32.4033 -16.7760 26.5615 -3.9867 0.0000 0.0000 19.9230 2.7422 -52.6464 -2.1804 7.1250 -0.0000 -0.0000 73.2005 -70.2798 -52.2604
9.3193 15.2659 -35.3297 -3.0825 -0.2152 -356.1550 0.0000 0.0000 0.0000 -10.0161 -29.5150 -24.6408 2.4682 9.7798 28.2666 0.9115 13.7226 -27.6869 0.1529 -2.5199 -6.9450 0.0000 0.0000 0.0000 36.2926 5.9615 16.2089 0.0000 0.0000 -0.0000 1.7558 -28.0421 -28.6109 -0.7487 -5.5268 15.4174 2.2167 1.0844 7.2248 0.1116 1.7263 -5.2366 -1.3907 0.6949 -9.5659 -7.4458 -4.3124 -5.9238 9.4395 -6.5283 15.7372 3.7592 -2.9373 6.2803 0.0000 0.0000 0.0000 -87.0187 13.4531 31.8036 19.4844 -30.0162 -5.2710 -0.0000 -0.0000 14.8926 13.5335 -34.0507 -7.6757 -7.1250 0.0000 -0.0000 -10.4690 -4.3098 11.4123 0.0000 0.0000 0.0000 86.1331 -9.3292 32.4073 -16.6154 26.3480 -3.9151 0.0000 0.0000 20.1497 2.8602 -52.6451 -2.2742 7.1250 -0.0000 -0.0000 73.2634 -70.2388 -52.2682
9.3336 15.2614 -35.2725 -3.1143 -0.1149 -355.9860 0.0000 0.0000 0.0000 -10.1640 -29.2570 -24.6104 2.4597 9.7643 28.2167 0.9375 13.2414 -27.4138 0.1132 -2.1697 -5.9749 0.0000 0.0000 0.0000 36.2461 5.8023 16.1832 0.0000 0.0000 -0.0000 1.7829 -28.0382 -28.3802 -0.7103 -5.3865 15.0143 2.2489 1.0725 7.3275 0.1342 1.7227 -5.4278 -1.3897 0.6862 -9.8383 -7.3775 -4.3214 -5.9594 9.3879 -6.5632 16.0616 3.7297 -2.9488 6.3881 0.0000 0.0000 0.0000 -87.0174 13.7155 31.5700 19.4685 -29.9967 -5.2630 -0.0000 -0.0000 14.4135 12.9818 -34.2043 -7.3840 -7.1250 0.0000 -0.0000 -10.7873 -4.3711 11.7821 0.0000 0.0000 0.0000 85.8213 -9.3760 32.4882 -16.4622 26.1433 -3.8473 0.0000 0.0000 20.3795 2.6086 -52.9406 -2.0822 7.1250 -0.0000 -0.0000 73.9070 -70.4154 -53.0861
9.3551 15.2630 -35.1977 -3.0680 -0.2685 -355.9040 0.0000 0.0000 0.0000 -10.4168 -29.4319 -24.1868 2.4524 9.7509 28.1738 0.9163 13.5259 -27.5316 0.1553 -2.5393 -6.9986 0.0000 0.0000 0.0000 36.0848 5.7907 16.3937 0.0000 -0.0000 0.0000 1.8553 -28.1405 -28.0054 -0.6114 -5.0045 13.9214 2.2422 1.1178 6.9786 0.1791 1.7752 -5.3419 -1.3355 0.7196 -9.5353 -7.4179 -4.2848 -6.2651 9.3884 -6.5088 16.3084 3.7375 -2.9132 6.5166 -0.0000 0.0000 0.0000 -87.0985 13.7350 31.4054 19.5111 -30.0488 -5.2844 -0.0000 -0.0000 13.9063 12.7322 -33.9020 -7.1830 -7.1250 0.0000 -0.0000 -10.8944 -4.0341 11.8437 -0.0000 0.0000 0.0000 85.3931 -9.0565 32.5128 -16.3193 25.9517 -3.7846 0.0000 0.0000 20.6695 2.8921 -53.4098 -2.3228 7.1250 -0.0000 -0.0000 75.3168 -70.4528 -54.4581
9.3785 15.2707 -35.1220 -2.9924 -0.4401 -355.8520 0.0000 0.0000 0.0000 -10.6789 -29.9499 -23.6335 2.4504 9.7472 28.1620 0.8445 14.3960 -27.8656 0.2209 -3.0253 -8.3491 0.0000 0.0000 0.0000 35.8685 5.7715 16.6564 0.0000 -0.0000 0.0000 1.8557 -28.0731 -27.8489 -0.5699 -4.8347 13.4377 2.3234 1.1418 6.5901 0.1611 1.8014 -5.2317 -1.3919 0.7331 -9.1798 -7.4869 -4.2386 -6.3650 9.4659 -6.4543 16.4467 3.7785 -2.8809 6.5776 -0.0000 -0.0000 0.0000 -87.1564 13.7034 31.0113 19.4988 -30.0337 -5.2782 -0.0000 -0.0000 13.8335 12.8714 -33.8786 -7.2591 -7.1250 0.0000 -0.0000 -10.8155 -4.0333 11.7548 -0.0000 -0.0000 0.0000 85.0380 -8.6941 32.5695 -16.1594 25.7364 -3.7149 0.0000 0.0000 20.9408 2.6005 -53.5827 -2.0931 7.1250 -0.0000 -0.0000 75.6342 -70.6005 -54.9413
9.3982 15.2774 -35.0566 -2.8912 -0.4587 -355.8030 0.0000 0.0000 0.0000 -10.9726 -30.1684 -23.3088 2.4522 9.7504 28.1721 0.7587 14.8788 -27.7319 0.2441 -3.1792 -8.7779 0.0000 0.0000 0.0000 35.6419 5.6249 16.8280 0.0000 -0.0000 0.0000 1.8721 -28.0218 -27.5903 -0.5265 -4.6500 12.9130 2.3722 1.1290 6.9012 0.0694 1.7960 -5.4899 -1.5285 0.7138 -9.6447 -7.4397 -4.1948 -6.2062 9.5465 -6.4498 16.7875 3.8033 -2.8701 6.6579 0.0000 0.0000 0.0000 -87.0808 14.1364 30.4977 19.4104 -29.9254 -5.2340 -0.0000 -0.0000 14.1597 12.8511 -34.0559 -7.2804 -7.1250 0.0000 -0.0000 -10.8441 -4.2043 11.8171 0.0000 0.0000 0.0000 84.8631 -8.9624 32.6685 -16.0920 25.6453 -3.6857 0.0000 0.0000 21.2756 1.8587 -54.0008 -1.5039 7.1250 -0.0000 -0.0000 76.4197 -70.9658 -56.1385
9.4200 15.2858 -34.9837 -2.7589 -0.3903 -355.7230 0.0000 0.0000 0.0000 -11.2946 -30.3675 -23.0310 2.4535 9.7528 28.1798 0.7288 15.0059 -27.6443 0.2728 -3.3595 -9.2813 0.0000 0.0000 0.0000 35.3881 5.4140 16.9480 0.0000 -0.0000 0.0000 2.0047 -28.2305 -26.9077 -0.3917 -4.0189 11.1297 2.3393 1.1269 6.6719 0.0159 1.7786 -5.5185 -1.5587 0.7073 -9.5395 -7.4014 -4.1335 -6.2666 9.6687 -6.4046 17.0019 3.8421 -2.8322 6.7348 0.0000 0.0000 0.0000 -87.0513 14.2302 30.2456 19.4088 -29.9235 -5.2332 -0.0000 -0.0000 14.1634 12.0763 -33.3073 -6.7007 -7.1250 0.0000 -0.0000 -11.2007 -3.3479 12.0631 0.0000 0.0000 0.0000 84.6696 -8.7419 31.9211 -15.8380 25.3006 -3.5765 0.0000 0.0000 21.8796 2.3484 -53.0781 -1.8778 7.1250 -0.0000 -0.0000 74.1349 -70.5457 -53.4600
9.4466 15.2954 -34.9015 -2.6097 -0.3367 -355.5410 0.0000 0.0000 0.0000 -11.5488 -30.8270 -22.7816 2.4472 9.7412 28.1426 0.7353 15.1896 -27.8865 0.3067 -3.5607 -9.8439 0.0000 0.0000 0.0000 35.1022 5.2635 17.0193 0.0000 -0.0000 0.0000 2.1049 -28.3809 -26.3509 -0.3013 -3.5292 9.7558 2.3429 1.1057 6.2560 -0.0225 1.7366 -5.5868 -1.5852 0.6878 -9.3678 -7.3969 -4.1195 -6.1681 9.6238 -6.4088 17.3267 3.8312 -2.8359 6.8197 -0.0000 -0.0000 0.0000 -87.0500 14.3932 30.0511 19.3877 -29.8976 -5.2227 -0.0000 -0.0000 14.2032 11.2460 -33.0157 -6.1834 -7.1250 0.0000 -0.0000 -11.6355 -2.9377 12.4712 -0.0000 -0.0000 0.0000 84.4029 -8.6460 31.7060 -15.7649 25.2009 -3.5453 0.0000 0.0000 22.2410 2.7143 -53.5244 -2.1831 7.1250 -0.0000 -0.0000 75.5343 -70.5455 -54.7786
